<svg width="112" height="24" viewBox="0 0 112 24" fill="none" xmlns="http://www.w3.org/2000/svg">
<path d="M18 3C18 5.36379 17.5344 7.70444 16.6298 9.8883C15.7252 12.0722 14.3994 14.0565 12.7279 15.7279C11.0565 17.3994 9.07216 18.7252 6.8883 19.6298C4.70444 20.5344 2.36379 21 0 21L1.36651e-06 12.6124C1.26232 12.6124 2.51228 12.3638 3.67852 11.8807C4.84475 11.3977 5.90442 10.6896 6.79701 9.79701C7.68961 8.90442 8.39766 7.84475 8.88073 6.67852C9.3638 5.51228 9.61243 4.26232 9.61243 3H18Z" fill="#181D27"/>
<path d="M15 21C15 16.2261 16.8964 11.6477 20.2721 8.27208C23.6477 4.89642 28.2261 3 33 3V11.3876C30.4506 11.3876 28.0057 12.4003 26.203 14.203C24.4003 16.0057 23.3876 18.4506 23.3876 21L15 21Z" fill="#181D27"/>
<path d="M108.513 20.5755L108.388 18.2288V14.1595C108.388 13.3107 108.296 12.6034 108.113 12.0375C107.947 11.455 107.664 11.0139 107.264 10.7144C106.882 10.3981 106.366 10.24 105.716 10.24C105.117 10.24 104.593 10.3649 104.144 10.6145C103.694 10.8642 103.312 11.2553 102.995 11.7879L100.549 10.8891C100.815 10.3399 101.165 9.83227 101.597 9.36625C102.047 8.8836 102.604 8.5008 103.27 8.21786C103.952 7.93493 104.768 7.79346 105.716 7.79346C106.931 7.79346 107.947 8.03479 108.762 8.51744C109.578 8.98346 110.177 9.65751 110.56 10.5396C110.959 11.4217 111.159 12.4869 111.159 13.7351L111.084 20.5755H108.513ZM104.918 20.8751C103.42 20.8751 102.255 20.5423 101.423 19.8765C100.607 19.2108 100.199 18.2704 100.199 17.0555C100.199 15.7573 100.632 14.767 101.497 14.0846C102.379 13.4023 103.603 13.0611 105.167 13.0611H108.513V15.2081H106.066C104.951 15.2081 104.169 15.3662 103.719 15.6824C103.27 15.982 103.045 16.4147 103.045 16.9806C103.045 17.4632 103.237 17.846 103.619 18.129C104.019 18.3953 104.568 18.5284 105.267 18.5284C105.9 18.5284 106.449 18.3869 106.915 18.104C107.381 17.8211 107.739 17.4466 107.988 16.9806C108.255 16.5146 108.388 15.9903 108.388 15.4078H109.212C109.212 17.1054 108.87 18.4452 108.188 19.4271C107.506 20.3925 106.415 20.8751 104.918 20.8751Z" fill="#181D27"/>
<path d="M96.2102 20.5755L96.0604 18.2787V8.09302H98.8315V20.5755H96.2102ZM87.5723 14.4841V8.09302H90.3683V14.4841H87.5723ZM90.3683 14.4841C90.3683 15.466 90.4849 16.2316 90.7179 16.7808C90.9509 17.3301 91.2671 17.7129 91.6665 17.9292C92.0826 18.1456 92.5569 18.2538 93.0895 18.2538C94.0382 18.2704 94.7705 17.9625 95.2865 17.3301C95.8024 16.6976 96.0604 15.7906 96.0604 14.6089H97.1089C97.1089 15.9237 96.9092 17.0555 96.5097 18.0041C96.1269 18.9362 95.5777 19.6518 94.8621 20.1511C94.163 20.6338 93.3142 20.8751 92.3156 20.8751C91.3337 20.8751 90.4848 20.6754 89.7692 20.2759C89.0702 19.8765 88.5293 19.2524 88.1465 18.4036C87.7637 17.5548 87.5723 16.4646 87.5723 15.1331V14.4841H90.3683Z" fill="#181D27"/>
<path d="M74.7949 20.5756V3.1001H77.591V20.5756H74.7949ZM83.2581 20.5756V14.1846H86.0541V20.5756H83.2581ZM83.2581 14.1846C83.2581 13.186 83.1416 12.4204 82.9085 11.8878C82.6755 11.3385 82.351 10.9558 81.9349 10.7394C81.5355 10.523 81.0695 10.4148 80.5369 10.4148C79.5882 10.3982 78.8559 10.7061 78.34 11.3385C77.8407 11.971 77.591 12.8781 77.591 14.0597H76.5175C76.5175 12.7449 76.7089 11.6215 77.0917 10.6895C77.4911 9.74079 78.0487 9.02513 78.7644 8.54247C79.48 8.04317 80.3288 7.79352 81.3108 7.79352C82.2927 7.79352 83.1416 7.99324 83.8572 8.39268C84.5729 8.79212 85.1138 9.41624 85.4799 10.2651C85.8627 11.0972 86.0541 12.1874 86.0541 13.5355V14.1846H83.2581Z" fill="#181D27"/>
<path d="M68.727 20.8751C67.8949 20.8751 67.1293 20.7503 66.4302 20.5006C65.7312 20.251 65.1321 19.9015 64.6328 19.4521C64.1335 18.9861 63.7507 18.4452 63.4844 17.8294L65.906 16.7559C66.1556 17.2219 66.5218 17.613 67.0044 17.9292C67.5037 18.2455 68.053 18.4036 68.6521 18.4036C69.3012 18.4036 69.8172 18.2954 70.2 18.079C70.5994 17.846 70.7991 17.5298 70.7991 17.1304C70.7991 16.7476 70.6493 16.4563 70.3498 16.2566C70.0502 16.0402 69.6258 15.8655 69.0765 15.7323L67.9032 15.4078C66.7215 15.1082 65.7978 14.6339 65.1321 13.9848C64.4663 13.319 64.1335 12.5618 64.1335 11.713C64.1335 10.4647 64.5329 9.4994 65.3318 8.81702C66.1473 8.13464 67.3123 7.79346 68.8269 7.79346C69.5925 7.79346 70.2915 7.90996 70.9239 8.14297C71.573 8.35933 72.1306 8.67555 72.5966 9.09164C73.0626 9.49108 73.3872 9.96541 73.5702 10.5146L71.2485 11.5632C71.0821 11.1471 70.7658 10.8309 70.2998 10.6145C69.8338 10.3815 69.3179 10.265 68.752 10.265C68.1861 10.265 67.7451 10.3898 67.4288 10.6395C67.1126 10.8725 66.9545 11.2053 66.9545 11.6381C66.9545 11.8877 67.096 12.1207 67.3789 12.3371C67.6619 12.5368 68.0696 12.7032 68.6022 12.8364L70.0751 13.1859C70.8907 13.3856 71.5564 13.7018 72.0723 14.1346C72.5883 14.5507 72.9711 15.025 73.2207 15.5576C73.4704 16.0735 73.5952 16.5978 73.5952 17.1304C73.5952 17.8793 73.3788 18.5367 72.9461 19.1026C72.53 19.6685 71.9558 20.1095 71.2235 20.4257C70.4912 20.7253 69.6591 20.8751 68.727 20.8751Z" fill="#181D27"/>
<path d="M56.4586 20.8751C55.2103 20.8751 54.0952 20.6005 53.1132 20.0513C52.1479 19.4854 51.3907 18.7115 50.8414 17.7295C50.2922 16.7476 50.0176 15.6158 50.0176 14.3343C50.0176 13.0528 50.2839 11.921 50.8165 10.939C51.3657 9.95709 52.123 9.1915 53.0883 8.64227C54.0536 8.07639 55.1604 7.79346 56.4086 7.79346C57.6569 7.79346 58.7637 8.07639 59.729 8.64227C60.6943 9.1915 61.4432 9.95709 61.9758 10.939C62.525 11.921 62.7997 13.0528 62.7997 14.3343C62.7997 15.6158 62.5334 16.7476 62.0008 17.7295C61.4682 18.7115 60.7192 19.4854 59.7539 20.0513C58.7886 20.6005 57.6902 20.8751 56.4586 20.8751ZM56.4586 18.3037C57.1409 18.3037 57.7484 18.1373 58.281 17.8044C58.8136 17.4549 59.2297 16.9889 59.5292 16.4064C59.8288 15.8072 59.9786 15.1165 59.9786 14.3343C59.9786 13.5521 59.8205 12.8697 59.5043 12.2872C59.2047 11.688 58.7886 11.222 58.256 10.8891C57.7234 10.5396 57.1076 10.3649 56.4086 10.3649C55.7096 10.3649 55.0938 10.5313 54.5612 10.8642C54.0286 11.197 53.6125 11.663 53.313 12.2622C53.0134 12.8614 52.8636 13.5521 52.8636 14.3343C52.8636 15.1165 53.0134 15.8072 53.313 16.4064C53.6292 16.9889 54.0536 17.4549 54.5862 17.8044C55.1354 18.1373 55.7595 18.3037 56.4586 18.3037Z" fill="#181D27"/>
<path d="M42.2427 20.9001C41.4771 20.9001 40.7947 20.7836 40.1955 20.5506C39.613 20.3176 39.1054 20.0097 38.6727 19.6269C38.2399 19.2441 37.8821 18.8281 37.5992 18.3787C37.3329 17.9293 37.1331 17.4883 37 17.0555L39.3717 16.032C39.6713 16.7143 40.0541 17.2553 40.5201 17.6547C41.0027 18.0541 41.5852 18.2539 42.2676 18.2539C42.8168 18.2539 43.3328 18.129 43.8154 17.8794C44.3147 17.6131 44.7225 17.197 45.0387 16.6311C45.355 16.0653 45.5131 15.3163 45.5131 14.3843V3.1001H48.409V15.308C48.409 16.2067 48.2426 17.0056 47.9097 17.7046C47.5935 18.387 47.1524 18.9695 46.5866 19.4522C46.0207 19.9348 45.3633 20.301 44.6143 20.5506C43.8654 20.7836 43.0748 20.9001 42.2427 20.9001Z" fill="#181D27"/>
</svg>
