<svg width="97" height="24" viewBox="0 0 97 24" fill="none" xmlns="http://www.w3.org/2000/svg">
<path d="M2.7875 14.7125C2.59583 14.5208 2.5 14.2833 2.5 14C2.5 13.7167 2.59583 13.4792 2.7875 13.2875C2.97917 13.0958 3.21667 13 3.5 13C3.78333 13 4.02083 13.0958 4.2125 13.2875C4.40417 13.4792 4.5 13.7167 4.5 14C4.5 14.2833 4.40417 14.5208 4.2125 14.7125C4.02083 14.9042 3.78333 15 3.5 15C3.21667 15 2.97917 14.9042 2.7875 14.7125ZM2.7875 18.7125C2.59583 18.5208 2.5 18.2833 2.5 18C2.5 17.7167 2.59583 17.4792 2.7875 17.2875C2.97917 17.0958 3.21667 17 3.5 17C3.78333 17 4.02083 17.0958 4.2125 17.2875C4.40417 17.4792 4.5 17.7167 4.5 18C4.5 18.2833 4.40417 18.5208 4.2125 18.7125C4.02083 18.9042 3.78333 19 3.5 19C3.21667 19 2.97917 18.9042 2.7875 18.7125ZM2.7875 10.7125C2.59583 10.5208 2.5 10.2833 2.5 10C2.5 9.71667 2.59583 9.47917 2.7875 9.2875C2.97917 9.09583 3.21667 9 3.5 9C3.78333 9 4.02083 9.09583 4.2125 9.2875C4.40417 9.47917 4.5 9.71667 4.5 10C4.5 10.2833 4.40417 10.5208 4.2125 10.7125C4.02083 10.9042 3.78333 11 3.5 11C3.21667 11 2.97917 10.9042 2.7875 10.7125ZM0.15 10.35C0.05 10.25 0 10.1333 0 10C0 9.86667 0.05 9.75 0.15 9.65C0.25 9.55 0.366667 9.5 0.5 9.5C0.633333 9.5 0.75 9.55 0.85 9.65C0.95 9.75 1 9.86667 1 10C1 10.1333 0.95 10.25 0.85 10.35C0.75 10.45 0.633333 10.5 0.5 10.5C0.366667 10.5 0.25 10.45 0.15 10.35ZM2.7875 6.7125C2.59583 6.52083 2.5 6.28333 2.5 6C2.5 5.71667 2.59583 5.47917 2.7875 5.2875C2.97917 5.09583 3.21667 5 3.5 5C3.78333 5 4.02083 5.09583 4.2125 5.2875C4.40417 5.47917 4.5 5.71667 4.5 6C4.5 6.28333 4.40417 6.52083 4.2125 6.7125C4.02083 6.90417 3.78333 7 3.5 7C3.21667 7 2.97917 6.90417 2.7875 6.7125ZM0.15 14.35C0.05 14.25 0 14.1333 0 14C0 13.8667 0.05 13.75 0.15 13.65C0.25 13.55 0.366667 13.5 0.5 13.5C0.633333 13.5 0.75 13.55 0.85 13.65C0.95 13.75 1 13.8667 1 14C1 14.1333 0.95 14.25 0.85 14.35C0.75 14.45 0.633333 14.5 0.5 14.5C0.366667 14.5 0.25 14.45 0.15 14.35ZM7.15 21.35C7.05 21.25 7 21.1333 7 21C7 20.8667 7.05 20.75 7.15 20.65C7.25 20.55 7.36667 20.5 7.5 20.5C7.63333 20.5 7.75 20.55 7.85 20.65C7.95 20.75 8 20.8667 8 21C8 21.1333 7.95 21.25 7.85 21.35C7.75 21.45 7.63333 21.5 7.5 21.5C7.36667 21.5 7.25 21.45 7.15 21.35ZM7.15 3.35C7.05 3.25 7 3.13333 7 3C7 2.86667 7.05 2.75 7.15 2.65C7.25 2.55 7.36667 2.5 7.5 2.5C7.63333 2.5 7.75 2.55 7.85 2.65C7.95 2.75 8 2.86667 8 3C8 3.13333 7.95 3.25 7.85 3.35C7.75 3.45 7.63333 3.5 7.5 3.5C7.36667 3.5 7.25 3.45 7.15 3.35ZM6.7875 6.7125C6.59583 6.52083 6.5 6.28333 6.5 6C6.5 5.71667 6.59583 5.47917 6.7875 5.2875C6.97917 5.09583 7.21667 5 7.5 5C7.78333 5 8.02083 5.09583 8.2125 5.2875C8.40417 5.47917 8.5 5.71667 8.5 6C8.5 6.28333 8.40417 6.52083 8.2125 6.7125C8.02083 6.90417 7.78333 7 7.5 7C7.21667 7 6.97917 6.90417 6.7875 6.7125ZM6.4375 15.0625C6.14583 14.7708 6 14.4167 6 14C6 13.5833 6.14583 13.2292 6.4375 12.9375C6.72917 12.6458 7.08333 12.5 7.5 12.5C7.91667 12.5 8.27083 12.6458 8.5625 12.9375C8.85417 13.2292 9 13.5833 9 14C9 14.4167 8.85417 14.7708 8.5625 15.0625C8.27083 15.3542 7.91667 15.5 7.5 15.5C7.08333 15.5 6.72917 15.3542 6.4375 15.0625ZM6.4375 11.0625C6.14583 10.7708 6 10.4167 6 10C6 9.58333 6.14583 9.22917 6.4375 8.9375C6.72917 8.64583 7.08333 8.5 7.5 8.5C7.91667 8.5 8.27083 8.64583 8.5625 8.9375C8.85417 9.22917 9 9.58333 9 10C9 10.4167 8.85417 10.7708 8.5625 11.0625C8.27083 11.3542 7.91667 11.5 7.5 11.5C7.08333 11.5 6.72917 11.3542 6.4375 11.0625ZM6.7875 18.7125C6.59583 18.5208 6.5 18.2833 6.5 18C6.5 17.7167 6.59583 17.4792 6.7875 17.2875C6.97917 17.0958 7.21667 17 7.5 17C7.78333 17 8.02083 17.0958 8.2125 17.2875C8.40417 17.4792 8.5 17.7167 8.5 18C8.5 18.2833 8.40417 18.5208 8.2125 18.7125C8.02083 18.9042 7.78333 19 7.5 19C7.21667 19 6.97917 18.9042 6.7875 18.7125ZM16.2625 17.95C14.7708 19.6333 12.925 20.625 10.725 20.925C10.3917 20.975 10.1042 20.8833 9.8625 20.65C9.62083 20.4167 9.5 20.1333 9.5 19.8V4.2C9.5 3.86667 9.62083 3.5875 9.8625 3.3625C10.1042 3.1375 10.3917 3.04167 10.725 3.075C12.925 3.375 14.7708 4.36667 16.2625 6.05C17.7542 7.73333 18.5 9.71667 18.5 12C18.5 14.2833 17.7542 16.2667 16.2625 17.95Z" fill="currentColor"/>
<path d="M94.0126 20.5755L93.8877 18.2288V14.1595C93.8877 13.3107 93.7962 12.6034 93.6131 12.0375C93.4467 11.455 93.1638 11.0139 92.7643 10.7144C92.3815 10.3981 91.8656 10.24 91.2165 10.24C90.6173 10.24 90.0931 10.3649 89.6437 10.6145C89.1943 10.8642 88.8115 11.2553 88.4953 11.7879L86.0487 10.8891C86.315 10.3399 86.6645 9.83227 87.0973 9.36625C87.5466 8.8836 88.1042 8.5008 88.7699 8.21786C89.4523 7.93493 90.2678 7.79346 91.2165 7.79346C92.4314 7.79346 93.4467 8.03479 94.2622 8.51744C95.0777 8.98346 95.6769 9.65751 96.0597 10.5396C96.4591 11.4217 96.6588 12.4869 96.6588 13.7351L96.584 20.5755H94.0126ZM90.4176 20.8751C88.9197 20.8751 87.7547 20.5423 86.9225 19.8765C86.107 19.2108 85.6992 18.2704 85.6992 17.0555C85.6992 15.7573 86.1319 14.767 86.9974 14.0846C87.8795 13.4023 89.1028 13.0611 90.6673 13.0611H94.0126V15.2081H91.566C90.4509 15.2081 89.6686 15.3662 89.2193 15.6824C88.7699 15.982 88.5452 16.4147 88.5452 16.9806C88.5452 17.4632 88.7366 17.846 89.1194 18.129C89.5189 18.3953 90.0681 18.5284 90.7671 18.5284C91.3996 18.5284 91.9488 18.3869 92.4148 18.104C92.8808 17.8211 93.2386 17.4466 93.4883 16.9806C93.7546 16.5146 93.8877 15.9903 93.8877 15.4078H94.7116C94.7116 17.1054 94.3704 18.4452 93.688 19.4271C93.0056 20.3925 91.9155 20.8751 90.4176 20.8751Z" fill="currentColor"/>
<path d="M81.7102 20.5755L81.5604 18.2787V8.09302H84.3315V20.5755H81.7102ZM73.0723 14.4841V8.09302H75.8683V14.4841H73.0723ZM75.8683 14.4841C75.8683 15.466 75.9849 16.2316 76.2179 16.7808C76.4509 17.3301 76.7671 17.7129 77.1665 17.9292C77.5826 18.1456 78.0569 18.2538 78.5895 18.2538C79.5382 18.2704 80.2705 17.9625 80.7865 17.3301C81.3024 16.6976 81.5604 15.7906 81.5604 14.6089H82.6089C82.6089 15.9237 82.4092 17.0555 82.0097 18.0041C81.6269 18.9362 81.0777 19.6518 80.362 20.1511C79.663 20.6338 78.8142 20.8751 77.8156 20.8751C76.8337 20.8751 75.9848 20.6754 75.2692 20.2759C74.5702 19.8765 74.0293 19.2524 73.6465 18.4036C73.2637 17.5548 73.0723 16.4646 73.0723 15.1331V14.4841H75.8683Z" fill="currentColor"/>
<path d="M60.2949 20.5756V3.1001H63.091V20.5756H60.2949ZM68.7581 20.5756V14.1846H71.5541V20.5756H68.7581ZM68.7581 14.1846C68.7581 13.186 68.6416 12.4204 68.4085 11.8878C68.1755 11.3385 67.851 10.9558 67.4349 10.7394C67.0355 10.523 66.5695 10.4148 66.0369 10.4148C65.0882 10.3982 64.3559 10.7061 63.84 11.3385C63.3407 11.971 63.091 12.8781 63.091 14.0597H62.0175C62.0175 12.7449 62.2089 11.6215 62.5917 10.6895C62.9911 9.74079 63.5487 9.02512 64.2644 8.54247C64.98 8.04317 65.8288 7.79352 66.8108 7.79352C67.7927 7.79352 68.6416 7.99324 69.3572 8.39268C70.0729 8.79212 70.6138 9.41624 70.9799 10.2651C71.3627 11.0972 71.5541 12.1874 71.5541 13.5355V14.1846H68.7581Z" fill="currentColor"/>
<path d="M54.227 20.8751C53.3949 20.8751 52.6293 20.7503 51.9302 20.5006C51.2312 20.251 50.6321 19.9015 50.1328 19.4521C49.6335 18.9861 49.2507 18.4452 48.9844 17.8294L51.406 16.7559C51.6556 17.2219 52.0218 17.613 52.5044 17.9292C53.0037 18.2455 53.553 18.4036 54.1521 18.4036C54.8012 18.4036 55.3172 18.2954 55.7 18.079C56.0994 17.846 56.2991 17.5298 56.2991 17.1304C56.2991 16.7476 56.1493 16.4563 55.8498 16.2566C55.5502 16.0402 55.1258 15.8655 54.5765 15.7323L53.4032 15.4078C52.2215 15.1082 51.2978 14.6339 50.6321 13.9848C49.9663 13.319 49.6335 12.5618 49.6335 11.713C49.6335 10.4647 50.0329 9.4994 50.8318 8.81702C51.6473 8.13464 52.8123 7.79346 54.3269 7.79346C55.0925 7.79346 55.7915 7.90996 56.4239 8.14297C57.073 8.35933 57.6306 8.67555 58.0966 9.09164C58.5626 9.49108 58.8872 9.96541 59.0702 10.5146L56.7485 11.5632C56.5821 11.1471 56.2658 10.8309 55.7998 10.6145C55.3338 10.3815 54.8179 10.265 54.252 10.265C53.6861 10.265 53.2451 10.3898 52.9288 10.6395C52.6126 10.8725 52.4545 11.2053 52.4545 11.6381C52.4545 11.8877 52.596 12.1207 52.8789 12.3371C53.1619 12.5368 53.5696 12.7032 54.1022 12.8364L55.5751 13.1859C56.3907 13.3856 57.0564 13.7018 57.5723 14.1346C58.0883 14.5507 58.4711 15.025 58.7207 15.5576C58.9704 16.0735 59.0952 16.5978 59.0952 17.1304C59.0952 17.8793 58.8788 18.5367 58.4461 19.1026C58.03 19.6685 57.4558 20.1095 56.7235 20.4257C55.9912 20.7253 55.1591 20.8751 54.227 20.8751Z" fill="currentColor"/>
<path d="M41.9586 20.8751C40.7103 20.8751 39.5952 20.6005 38.6132 20.0513C37.6479 19.4854 36.8907 18.7115 36.3414 17.7295C35.7922 16.7476 35.5176 15.6158 35.5176 14.3343C35.5176 13.0528 35.7839 11.921 36.3165 10.939C36.8657 9.95709 37.623 9.1915 38.5883 8.64227C39.5536 8.07639 40.6604 7.79346 41.9086 7.79346C43.1569 7.79346 44.2637 8.07639 45.229 8.64227C46.1943 9.1915 46.9432 9.95709 47.4758 10.939C48.025 11.921 48.2997 13.0528 48.2997 14.3343C48.2997 15.6158 48.0334 16.7476 47.5008 17.7295C46.9682 18.7115 46.2192 19.4854 45.2539 20.0513C44.2886 20.6005 43.1902 20.8751 41.9586 20.8751ZM41.9586 18.3037C42.6409 18.3037 43.2484 18.1373 43.781 17.8044C44.3136 17.4549 44.7297 16.9889 45.0292 16.4064C45.3288 15.8072 45.4786 15.1165 45.4786 14.3343C45.4786 13.5521 45.3205 12.8697 45.0043 12.2872C44.7047 11.688 44.2886 11.222 43.756 10.8891C43.2234 10.5396 42.6076 10.3649 41.9086 10.3649C41.2096 10.3649 40.5938 10.5313 40.0612 10.8642C39.5286 11.197 39.1125 11.663 38.813 12.2622C38.5134 12.8614 38.3636 13.5521 38.3636 14.3343C38.3636 15.1165 38.5134 15.8072 38.813 16.4064C39.1292 16.9889 39.5536 17.4549 40.0862 17.8044C40.6354 18.1373 41.2595 18.3037 41.9586 18.3037Z" fill="currentColor"/>
<path d="M27.7427 20.9001C26.9771 20.9001 26.2947 20.7836 25.6955 20.5506C25.113 20.3176 24.6054 20.0097 24.1727 19.6269C23.7399 19.2441 23.3821 18.8281 23.0992 18.3787C22.8329 17.9293 22.6331 17.4883 22.5 17.0555L24.8717 16.032C25.1713 16.7143 25.5541 17.2553 26.0201 17.6547C26.5027 18.0541 27.0852 18.2539 27.7676 18.2539C28.3168 18.2539 28.8328 18.129 29.3154 17.8794C29.8147 17.6131 30.2225 17.197 30.5387 16.6311C30.855 16.0653 31.0131 15.3163 31.0131 14.3843V3.1001H33.909V15.308C33.909 16.2067 33.7426 17.0056 33.4097 17.7046C33.0935 18.387 32.6524 18.9695 32.0866 19.4522C31.5207 19.9348 30.8633 20.301 30.1143 20.5506C29.3654 20.7836 28.5748 20.9001 27.7427 20.9001Z" fill="currentColor"/>
</svg>
