<svg width="113" height="24" viewBox="0 0 113 24" fill="none" xmlns="http://www.w3.org/2000/svg">
<path d="M109.788 20.5755L109.663 18.2288V14.1595C109.663 13.3107 109.572 12.6034 109.389 12.0375C109.222 11.455 108.939 11.0139 108.54 10.7144C108.157 10.3981 107.641 10.24 106.992 10.24C106.393 10.24 105.868 10.3649 105.419 10.6145C104.97 10.8642 104.587 11.2553 104.271 11.7879L101.824 10.8891C102.09 10.3399 102.44 9.83227 102.873 9.36625C103.322 8.8836 103.88 8.5008 104.545 8.21786C105.228 7.93493 106.043 7.79346 106.992 7.79346C108.207 7.79346 109.222 8.03479 110.038 8.51744C110.853 8.98346 111.452 9.65751 111.835 10.5396C112.235 11.4217 112.434 12.4869 112.434 13.7351L112.359 20.5755H109.788ZM106.193 20.8751C104.695 20.8751 103.53 20.5423 102.698 19.8765C101.882 19.2108 101.475 18.2704 101.475 17.0555C101.475 15.7573 101.907 14.767 102.773 14.0846C103.655 13.4023 104.878 13.0611 106.443 13.0611H109.788V15.2081H107.341C106.226 15.2081 105.444 15.3662 104.995 15.6824C104.545 15.982 104.321 16.4147 104.321 16.9806C104.321 17.4632 104.512 17.846 104.895 18.129C105.294 18.3953 105.843 18.5284 106.543 18.5284C107.175 18.5284 107.724 18.3869 108.19 18.104C108.656 17.8211 109.014 17.4466 109.264 16.9806C109.53 16.5146 109.663 15.9903 109.663 15.4078H110.487C110.487 17.1054 110.146 18.4452 109.463 19.4271C108.781 20.3925 107.691 20.8751 106.193 20.8751Z" fill="white"/>
<path d="M97.4855 20.5755L97.3358 18.2787V8.09302H100.107V20.5755H97.4855ZM88.8477 14.4841V8.09302H91.6437V14.4841H88.8477ZM91.6437 14.4841C91.6437 15.466 91.7602 16.2316 91.9932 16.7808C92.2263 17.3301 92.5425 17.7129 92.9419 17.9292C93.358 18.1456 93.8323 18.2538 94.3649 18.2538C95.3136 18.2704 96.0459 17.9625 96.5618 17.3301C97.0778 16.6976 97.3358 15.7906 97.3358 14.6089H98.3843C98.3843 15.9237 98.1846 17.0555 97.7851 18.0041C97.4023 18.9362 96.8531 19.6518 96.1374 20.1511C95.4384 20.6338 94.5896 20.8751 93.591 20.8751C92.6091 20.8751 91.7602 20.6754 91.0446 20.2759C90.3456 19.8765 89.8047 19.2524 89.4219 18.4036C89.0391 17.5548 88.8477 16.4646 88.8477 15.1331V14.4841H91.6437Z" fill="white"/>
<path d="M76.0703 20.5756V3.1001H78.8664V20.5756H76.0703ZM84.5334 20.5756V14.1846H87.3295V20.5756H84.5334ZM84.5334 14.1846C84.5334 13.186 84.4169 12.4204 84.1839 11.8878C83.9509 11.3385 83.6264 10.9558 83.2103 10.7394C82.8109 10.523 82.3449 10.4148 81.8123 10.4148C80.8636 10.3982 80.1313 10.7061 79.6153 11.3385C79.116 11.971 78.8664 12.8781 78.8664 14.0597H77.7929C77.7929 12.7449 77.9843 11.6215 78.3671 10.6895C78.7665 9.74079 79.3241 9.02512 80.0397 8.54247C80.7554 8.04317 81.6042 7.79352 82.5862 7.79352C83.5681 7.79352 84.4169 7.99324 85.1326 8.39268C85.8483 8.79212 86.3892 9.41624 86.7553 10.2651C87.1381 11.0972 87.3295 12.1874 87.3295 13.5355V14.1846H84.5334Z" fill="white"/>
<path d="M70.0005 20.8751C69.1683 20.8751 68.4027 20.7503 67.7037 20.5006C67.0047 20.251 66.4055 19.9015 65.9062 19.4521C65.4069 18.9861 65.0241 18.4452 64.7578 17.8294L67.1794 16.7559C67.4291 17.2219 67.7952 17.613 68.2779 17.9292C68.7772 18.2455 69.3264 18.4036 69.9256 18.4036C70.5747 18.4036 71.0906 18.2954 71.4734 18.079C71.8728 17.846 72.0726 17.5298 72.0726 17.1304C72.0726 16.7476 71.9228 16.4563 71.6232 16.2566C71.3236 16.0402 70.8992 15.8655 70.35 15.7323L69.1766 15.4078C67.9949 15.1082 67.0712 14.6339 66.4055 13.9848C65.7398 13.319 65.4069 12.5618 65.4069 11.713C65.4069 10.4647 65.8063 9.4994 66.6052 8.81702C67.4207 8.13464 68.5858 7.79346 70.1003 7.79346C70.8659 7.79346 71.5649 7.90996 72.1974 8.14297C72.8465 8.35933 73.404 8.67555 73.87 9.09164C74.3361 9.49108 74.6606 9.96541 74.8437 10.5146L72.5219 11.5632C72.3555 11.1471 72.0393 10.8309 71.5733 10.6145C71.1072 10.3815 70.5913 10.265 70.0254 10.265C69.4596 10.265 69.0185 10.3898 68.7023 10.6395C68.3861 10.8725 68.2279 11.2053 68.2279 11.6381C68.2279 11.8877 68.3694 12.1207 68.6524 12.3371C68.9353 12.5368 69.3431 12.7032 69.8756 12.8364L71.3486 13.1859C72.1641 13.3856 72.8298 13.7018 73.3458 14.1346C73.8617 14.5507 74.2445 15.025 74.4942 15.5576C74.7438 16.0735 74.8686 16.5978 74.8686 17.1304C74.8686 17.8793 74.6523 18.5367 74.2195 19.1026C73.8035 19.6685 73.2293 20.1095 72.497 20.4257C71.7647 20.7253 70.9325 20.8751 70.0005 20.8751Z" fill="white"/>
<path d="M57.7339 20.8751C56.4857 20.8751 55.3706 20.6005 54.3886 20.0513C53.4233 19.4854 52.666 18.7115 52.1168 17.7295C51.5676 16.7476 51.293 15.6158 51.293 14.3343C51.293 13.0528 51.5593 11.921 52.0918 10.939C52.6411 9.95709 53.3984 9.1915 54.3637 8.64227C55.329 8.07639 56.4358 7.79346 57.684 7.79346C58.9323 7.79346 60.039 8.07639 61.0044 8.64227C61.9697 9.1915 62.7186 9.95709 63.2512 10.939C63.8004 11.921 64.0751 13.0528 64.0751 14.3343C64.0751 15.6158 63.8088 16.7476 63.2762 17.7295C62.7436 18.7115 61.9946 19.4854 61.0293 20.0513C60.064 20.6005 58.9655 20.8751 57.7339 20.8751ZM57.7339 18.3037C58.4163 18.3037 59.0238 18.1373 59.5564 17.8044C60.089 17.4549 60.5051 16.9889 60.8046 16.4064C61.1042 15.8072 61.254 15.1165 61.254 14.3343C61.254 13.5521 61.0959 12.8697 60.7797 12.2872C60.4801 11.688 60.064 11.222 59.5314 10.8891C58.9988 10.5396 58.383 10.3649 57.684 10.3649C56.985 10.3649 56.3692 10.5313 55.8366 10.8642C55.304 11.197 54.8879 11.663 54.5883 12.2622C54.2888 12.8614 54.139 13.5521 54.139 14.3343C54.139 15.1165 54.2888 15.8072 54.5883 16.4064C54.9046 16.9889 55.329 17.4549 55.8616 17.8044C56.4108 18.1373 57.0349 18.3037 57.7339 18.3037Z" fill="white"/>
<path d="M43.518 20.9001C42.7524 20.9001 42.0701 20.7836 41.4709 20.5506C40.8884 20.3176 40.3808 20.0097 39.948 19.6269C39.5153 19.2441 39.1575 18.8281 38.8746 18.3787C38.6083 17.9293 38.4085 17.4883 38.2754 17.0555L40.6471 16.032C40.9466 16.7143 41.3294 17.2553 41.7955 17.6547C42.2781 18.0541 42.8606 18.2539 43.543 18.2539C44.0922 18.2539 44.6082 18.129 45.0908 17.8794C45.5901 17.6131 45.9979 17.197 46.3141 16.6311C46.6303 16.0653 46.7885 15.3163 46.7885 14.3843V3.1001H49.6844V15.308C49.6844 16.2067 49.518 17.0056 49.1851 17.7046C48.8689 18.387 48.4278 18.9695 47.862 19.4522C47.2961 19.9348 46.6387 20.301 45.8897 20.5506C45.1408 20.7836 44.3502 20.9001 43.518 20.9001Z" fill="white"/>
<path d="M13.6299 1C18.0015 1 21.6299 4.17092 22.3467 8.33789C22.9089 8.12887 23.5174 8.01465 24.1523 8.01465C27.0136 8.01479 29.3328 10.3341 29.333 13.1953C29.333 13.6333 29.2771 14.0586 29.1748 14.4648C29.4327 14.4166 29.6988 14.3916 29.9707 14.3916C32.3478 14.3916 34.2752 16.3182 34.2754 18.6953C34.2754 21.0725 32.3479 23 29.9707 23C29.9174 23 29.8644 22.997 29.8115 22.9951V23H5.73926V22.9932C2.5485 22.8675 0 20.243 0 17.0215C0.000118507 14.0959 2.10209 11.6621 4.87793 11.1455C4.81567 10.7219 4.78223 10.2885 4.78223 9.84766C4.78232 4.96133 8.74358 1.00018 13.6299 1Z" fill="white"/>
</svg>
