<svg width="75" height="24" viewBox="0 0 75 24" fill="none" xmlns="http://www.w3.org/2000/svg">
<path d="M71.5126 20.5755L71.3877 18.2288V14.1595C71.3877 13.3107 71.2962 12.6034 71.1131 12.0375C70.9467 11.455 70.6638 11.0139 70.2643 10.7144C69.8815 10.3981 69.3656 10.24 68.7165 10.24C68.1173 10.24 67.5931 10.3649 67.1437 10.6145C66.6943 10.8642 66.3115 11.2553 65.9953 11.7879L63.5487 10.8891C63.815 10.3399 64.1645 9.83227 64.5973 9.36625C65.0466 8.8836 65.6042 8.5008 66.2699 8.21786C66.9523 7.93493 67.7678 7.79346 68.7165 7.79346C69.9314 7.79346 70.9467 8.03479 71.7622 8.51744C72.5777 8.98346 73.1769 9.65751 73.5597 10.5396C73.9591 11.4217 74.1588 12.4869 74.1588 13.7351L74.084 20.5755H71.5126ZM67.9176 20.8751C66.4197 20.8751 65.2547 20.5423 64.4225 19.8765C63.607 19.2108 63.1992 18.2704 63.1992 17.0555C63.1992 15.7573 63.6319 14.767 64.4974 14.0846C65.3795 13.4023 66.6028 13.0611 68.1673 13.0611H71.5126V15.2081H69.066C67.9509 15.2081 67.1686 15.3662 66.7193 15.6824C66.2699 15.982 66.0452 16.4147 66.0452 16.9806C66.0452 17.4632 66.2366 17.846 66.6194 18.129C67.0189 18.3953 67.5681 18.5284 68.2671 18.5284C68.8996 18.5284 69.4488 18.3869 69.9148 18.104C70.3808 17.8211 70.7386 17.4466 70.9883 16.9806C71.2546 16.5146 71.3877 15.9903 71.3877 15.4078H72.2116C72.2116 17.1054 71.8704 18.4452 71.188 19.4271C70.5056 20.3925 69.4155 20.8751 67.9176 20.8751Z" fill="#181D27"/>
<path d="M59.2102 20.5755L59.0604 18.2787V8.09302H61.8315V20.5755H59.2102ZM50.5723 14.4841V8.09302H53.3683V14.4841H50.5723ZM53.3683 14.4841C53.3683 15.466 53.4849 16.2316 53.7179 16.7808C53.9509 17.3301 54.2671 17.7129 54.6665 17.9292C55.0826 18.1456 55.5569 18.2538 56.0895 18.2538C57.0382 18.2704 57.7705 17.9625 58.2865 17.3301C58.8024 16.6976 59.0604 15.7906 59.0604 14.6089H60.1089C60.1089 15.9237 59.9092 17.0555 59.5097 18.0041C59.1269 18.9362 58.5777 19.6518 57.862 20.1511C57.163 20.6338 56.3142 20.8751 55.3156 20.8751C54.3337 20.8751 53.4848 20.6754 52.7692 20.2759C52.0702 19.8765 51.5293 19.2524 51.1465 18.4036C50.7637 17.5548 50.5723 16.4646 50.5723 15.1331V14.4841H53.3683Z" fill="#181D27"/>
<path d="M37.7949 20.5756V3.1001H40.591V20.5756H37.7949ZM46.2581 20.5756V14.1846H49.0541V20.5756H46.2581ZM46.2581 14.1846C46.2581 13.186 46.1416 12.4204 45.9085 11.8878C45.6755 11.3385 45.351 10.9558 44.9349 10.7394C44.5355 10.523 44.0695 10.4148 43.5369 10.4148C42.5882 10.3982 41.8559 10.7061 41.34 11.3385C40.8407 11.971 40.591 12.8781 40.591 14.0597H39.5175C39.5175 12.7449 39.7089 11.6215 40.0917 10.6895C40.4911 9.74079 41.0487 9.02512 41.7644 8.54247C42.48 8.04317 43.3288 7.79352 44.3108 7.79352C45.2927 7.79352 46.1416 7.99324 46.8572 8.39268C47.5729 8.79212 48.1138 9.41624 48.4799 10.2651C48.8627 11.0972 49.0541 12.1874 49.0541 13.5355V14.1846H46.2581Z" fill="#181D27"/>
<path d="M31.727 20.8751C30.8949 20.8751 30.1293 20.7503 29.4302 20.5006C28.7312 20.251 28.1321 19.9015 27.6328 19.4521C27.1335 18.9861 26.7507 18.4452 26.4844 17.8294L28.906 16.7559C29.1556 17.2219 29.5218 17.613 30.0044 17.9292C30.5037 18.2455 31.053 18.4036 31.6521 18.4036C32.3012 18.4036 32.8172 18.2954 33.2 18.079C33.5994 17.846 33.7991 17.5298 33.7991 17.1304C33.7991 16.7476 33.6493 16.4563 33.3498 16.2566C33.0502 16.0402 32.6258 15.8655 32.0765 15.7323L30.9032 15.4078C29.7215 15.1082 28.7978 14.6339 28.1321 13.9848C27.4663 13.319 27.1335 12.5618 27.1335 11.713C27.1335 10.4647 27.5329 9.4994 28.3318 8.81702C29.1473 8.13464 30.3123 7.79346 31.8269 7.79346C32.5925 7.79346 33.2915 7.90996 33.9239 8.14297C34.573 8.35933 35.1306 8.67555 35.5966 9.09164C36.0626 9.49108 36.3872 9.96541 36.5702 10.5146L34.2485 11.5632C34.0821 11.1471 33.7658 10.8309 33.2998 10.6145C32.8338 10.3815 32.3179 10.265 31.752 10.265C31.1861 10.265 30.7451 10.3898 30.4288 10.6395C30.1126 10.8725 29.9545 11.2053 29.9545 11.6381C29.9545 11.8877 30.096 12.1207 30.3789 12.3371C30.6619 12.5368 31.0696 12.7032 31.6022 12.8364L33.0751 13.1859C33.8907 13.3856 34.5564 13.7018 35.0723 14.1346C35.5883 14.5507 35.9711 15.025 36.2207 15.5576C36.4704 16.0735 36.5952 16.5978 36.5952 17.1304C36.5952 17.8793 36.3788 18.5367 35.9461 19.1026C35.53 19.6685 34.9558 20.1095 34.2235 20.4257C33.4912 20.7253 32.6591 20.8751 31.727 20.8751Z" fill="#181D27"/>
<path d="M19.4586 20.8751C18.2103 20.8751 17.0952 20.6005 16.1132 20.0513C15.1479 19.4854 14.3907 18.7115 13.8414 17.7295C13.2922 16.7476 13.0176 15.6158 13.0176 14.3343C13.0176 13.0528 13.2839 11.921 13.8165 10.939C14.3657 9.95709 15.123 9.1915 16.0883 8.64227C17.0536 8.07639 18.1604 7.79346 19.4086 7.79346C20.6569 7.79346 21.7637 8.07639 22.729 8.64227C23.6943 9.1915 24.4432 9.95709 24.9758 10.939C25.525 11.921 25.7997 13.0528 25.7997 14.3343C25.7997 15.6158 25.5334 16.7476 25.0008 17.7295C24.4682 18.7115 23.7192 19.4854 22.7539 20.0513C21.7886 20.6005 20.6902 20.8751 19.4586 20.8751ZM19.4586 18.3037C20.1409 18.3037 20.7484 18.1373 21.281 17.8044C21.8136 17.4549 22.2297 16.9889 22.5292 16.4064C22.8288 15.8072 22.9786 15.1165 22.9786 14.3343C22.9786 13.5521 22.8205 12.8697 22.5043 12.2872C22.2047 11.688 21.7886 11.222 21.256 10.8891C20.7234 10.5396 20.1076 10.3649 19.4086 10.3649C18.7096 10.3649 18.0938 10.5313 17.5612 10.8642C17.0286 11.197 16.6125 11.663 16.313 12.2622C16.0134 12.8614 15.8636 13.5521 15.8636 14.3343C15.8636 15.1165 16.0134 15.8072 16.313 16.4064C16.6292 16.9889 17.0536 17.4549 17.5862 17.8044C18.1354 18.1373 18.7595 18.3037 19.4586 18.3037Z" fill="#181D27"/>
<path d="M5.24265 20.9001C4.47706 20.9001 3.79468 20.7836 3.19552 20.5506C2.613 20.3176 2.10538 20.0097 1.67266 19.6269C1.23993 19.2441 0.882097 18.8281 0.59916 18.3787C0.332867 17.9293 0.133147 17.4883 0 17.0555L2.37168 16.032C2.67126 16.7143 3.05405 17.2553 3.52007 17.6547C4.00272 18.0541 4.58524 18.2539 5.26762 18.2539C5.81685 18.2539 6.33279 18.129 6.81545 17.8794C7.31475 17.6131 7.72251 17.197 8.03873 16.6311C8.35495 16.0653 8.51307 15.3163 8.51307 14.3843V3.1001H11.409V15.308C11.409 16.2067 11.2426 17.0056 10.9097 17.7046C10.5935 18.387 10.1524 18.9695 9.58656 19.4522C9.02069 19.9348 8.36328 20.301 7.61433 20.5506C6.86538 20.7836 6.07482 20.9001 5.24265 20.9001Z" fill="#181D27"/>
</svg>
